<mxfile host="app.diagrams.net" agent="Mozilla/5.0 (Windows NT 10.0; Win64; x64) AppleWebKit/537.36 (KHTML, like Gecko) Chrome/131.0.0.0 Safari/537.36" version="24.8.6">
  <diagram name="Page-1" id="2HxR4Ng5PD8vntgg9K9c">
    <mxGraphModel dx="1900" dy="557" grid="1" gridSize="10" guides="1" tooltips="1" connect="1" arrows="1" fold="1" page="1" pageScale="1" pageWidth="850" pageHeight="1100" math="0" shadow="0">
      <root>
        <mxCell id="0" />
        <mxCell id="1" parent="0" />
        <mxCell id="MAdSaXPtCtztd2ttJc3T-1" value="AWS Account" style="points=[[0,0],[0.25,0],[0.5,0],[0.75,0],[1,0],[1,0.25],[1,0.5],[1,0.75],[1,1],[0.75,1],[0.5,1],[0.25,1],[0,1],[0,0.75],[0,0.5],[0,0.25]];outlineConnect=0;gradientColor=none;html=1;whiteSpace=wrap;fontSize=12;fontStyle=0;container=1;pointerEvents=0;collapsible=0;recursiveResize=0;shape=mxgraph.aws4.group;grIcon=mxgraph.aws4.group_account;strokeColor=#CD2264;fillColor=none;verticalAlign=top;align=left;spacingLeft=30;fontColor=#CD2264;dashed=0;" vertex="1" parent="1">
          <mxGeometry x="250" y="70" width="680" height="480" as="geometry" />
        </mxCell>
        <mxCell id="MAdSaXPtCtztd2ttJc3T-5" value="AWS Account" style="points=[[0,0],[0.25,0],[0.5,0],[0.75,0],[1,0],[1,0.25],[1,0.5],[1,0.75],[1,1],[0.75,1],[0.5,1],[0.25,1],[0,1],[0,0.75],[0,0.5],[0,0.25]];outlineConnect=0;gradientColor=none;html=1;whiteSpace=wrap;fontSize=12;fontStyle=0;container=1;pointerEvents=0;collapsible=0;recursiveResize=0;shape=mxgraph.aws4.group;grIcon=mxgraph.aws4.group_account;strokeColor=#CD2264;fillColor=#f2eded;verticalAlign=top;align=left;spacingLeft=30;fontColor=#CD2264;dashed=0;" vertex="1" parent="MAdSaXPtCtztd2ttJc3T-1">
          <mxGeometry width="680" height="480" as="geometry" />
        </mxCell>
        <mxCell id="MAdSaXPtCtztd2ttJc3T-7" value="" style="rounded=1;whiteSpace=wrap;html=1;" vertex="1" parent="MAdSaXPtCtztd2ttJc3T-5">
          <mxGeometry x="530" y="40" width="120" height="270" as="geometry" />
        </mxCell>
        <mxCell id="MAdSaXPtCtztd2ttJc3T-13" style="edgeStyle=orthogonalEdgeStyle;rounded=0;orthogonalLoop=1;jettySize=auto;html=1;" edge="1" parent="MAdSaXPtCtztd2ttJc3T-5" source="MAdSaXPtCtztd2ttJc3T-4" target="MAdSaXPtCtztd2ttJc3T-3">
          <mxGeometry relative="1" as="geometry" />
        </mxCell>
        <mxCell id="MAdSaXPtCtztd2ttJc3T-4" value="" style="rounded=1;whiteSpace=wrap;html=1;" vertex="1" parent="MAdSaXPtCtztd2ttJc3T-5">
          <mxGeometry x="100" y="40" width="120" height="270" as="geometry" />
        </mxCell>
        <mxCell id="MAdSaXPtCtztd2ttJc3T-9" value="" style="outlineConnect=0;dashed=0;verticalLabelPosition=bottom;verticalAlign=top;align=center;html=1;shape=mxgraph.aws3.application_load_balancer;fillColor=#F58534;gradientColor=none;" vertex="1" parent="MAdSaXPtCtztd2ttJc3T-5">
          <mxGeometry x="120" y="120" width="69" height="72" as="geometry" />
        </mxCell>
        <mxCell id="MAdSaXPtCtztd2ttJc3T-11" value="" style="edgeStyle=orthogonalEdgeStyle;rounded=0;orthogonalLoop=1;jettySize=auto;html=1;" edge="1" parent="MAdSaXPtCtztd2ttJc3T-5" source="MAdSaXPtCtztd2ttJc3T-3" target="MAdSaXPtCtztd2ttJc3T-7">
          <mxGeometry relative="1" as="geometry" />
        </mxCell>
        <mxCell id="MAdSaXPtCtztd2ttJc3T-3" value="" style="rounded=1;whiteSpace=wrap;html=1;" vertex="1" parent="MAdSaXPtCtztd2ttJc3T-5">
          <mxGeometry x="290" y="40" width="170" height="270" as="geometry" />
        </mxCell>
        <mxCell id="MAdSaXPtCtztd2ttJc3T-10" value="Amazon EKS" style="sketch=0;outlineConnect=0;fontColor=#232F3E;gradientColor=none;strokeColor=#ffffff;fillColor=#232F3E;dashed=0;verticalLabelPosition=middle;verticalAlign=bottom;align=center;html=1;whiteSpace=wrap;fontSize=10;fontStyle=1;spacing=3;shape=mxgraph.aws4.productIcon;prIcon=mxgraph.aws4.eks;" vertex="1" parent="MAdSaXPtCtztd2ttJc3T-5">
          <mxGeometry x="335" y="50" width="75" height="90" as="geometry" />
        </mxCell>
        <mxCell id="MAdSaXPtCtztd2ttJc3T-16" value="" style="rounded=1;whiteSpace=wrap;html=1;strokeColor=#001DBC;fillColor=#0050ef;fontColor=#ffffff;" vertex="1" parent="MAdSaXPtCtztd2ttJc3T-5">
          <mxGeometry x="300" y="150" width="150" height="60" as="geometry" />
        </mxCell>
        <mxCell id="MAdSaXPtCtztd2ttJc3T-18" value="" style="sketch=0;points=[[0,0,0],[0.25,0,0],[0.5,0,0],[0.75,0,0],[1,0,0],[0,1,0],[0.25,1,0],[0.5,1,0],[0.75,1,0],[1,1,0],[0,0.25,0],[0,0.5,0],[0,0.75,0],[1,0.25,0],[1,0.5,0],[1,0.75,0]];outlineConnect=0;fontColor=#232F3E;fillColor=#ED7100;strokeColor=#ffffff;dashed=0;verticalLabelPosition=bottom;verticalAlign=top;align=center;html=1;fontSize=12;fontStyle=0;aspect=fixed;shape=mxgraph.aws4.resourceIcon;resIcon=mxgraph.aws4.ec2;" vertex="1" parent="MAdSaXPtCtztd2ttJc3T-5">
          <mxGeometry x="310" y="153.75" width="55" height="55" as="geometry" />
        </mxCell>
        <mxCell id="MAdSaXPtCtztd2ttJc3T-21" value="" style="sketch=0;points=[[0,0,0],[0.25,0,0],[0.5,0,0],[0.75,0,0],[1,0,0],[0,1,0],[0.25,1,0],[0.5,1,0],[0.75,1,0],[1,1,0],[0,0.25,0],[0,0.5,0],[0,0.75,0],[1,0.25,0],[1,0.5,0],[1,0.75,0]];outlineConnect=0;fontColor=#232F3E;fillColor=#ED7100;strokeColor=#ffffff;dashed=0;verticalLabelPosition=bottom;verticalAlign=top;align=center;html=1;fontSize=12;fontStyle=0;aspect=fixed;shape=mxgraph.aws4.resourceIcon;resIcon=mxgraph.aws4.ec2;" vertex="1" parent="MAdSaXPtCtztd2ttJc3T-5">
          <mxGeometry x="390" y="151.25" width="57.5" height="57.5" as="geometry" />
        </mxCell>
        <mxCell id="MAdSaXPtCtztd2ttJc3T-17" value="" style="sketch=0;points=[[0,0,0],[0.25,0,0],[0.5,0,0],[0.75,0,0],[1,0,0],[0,1,0],[0.25,1,0],[0.5,1,0],[0.75,1,0],[1,1,0],[0,0.25,0],[0,0.5,0],[0,0.75,0],[1,0.25,0],[1,0.5,0],[1,0.75,0]];outlineConnect=0;fontColor=#232F3E;fillColor=#ED7100;strokeColor=#ffffff;dashed=0;verticalLabelPosition=bottom;verticalAlign=top;align=center;html=1;fontSize=12;fontStyle=0;aspect=fixed;shape=mxgraph.aws4.resourceIcon;resIcon=mxgraph.aws4.ec2;" vertex="1" parent="1">
          <mxGeometry x="-30" y="190" width="50" height="50" as="geometry" />
        </mxCell>
      </root>
    </mxGraphModel>
  </diagram>
</mxfile>
